#!OML:ASF H:\MichaelJackson\Top Level 1\Subject 1\Session 1\male.ASF
:FULLY-SPECIFIED
:DEGREES
648
root -8.58897 17.0367 30.2967 -356.599 22.8741 0.398226
lowerback 0.760238 -6.06421 -1.24016
upperback -0.249606 -8.11712 -3.15989
thorax -0.96722 -4.05954 -2.40584
lowerneck -5.51948 -5.40667 -1.22845
upperneck 2.91835 -7.32642 4.36739
head 2.09387 -3.55769 1.33002
rclavicle 1.34826e-013 9.54166e-015
rhumerus -58.3641 18.671 -65.126
rradius 121.97
rwrist -5.3144
rhand -0.602368 -8.0407
rfingers 7.12502
rthumb 25.0133 -36.4231
lclavicle 1.34826e-013 9.54166e-015
lhumerus -47.6476 -32.4267 111.739
lradius 45.3603
lwrist 19.8907
lhand 36.7081 31.3817
lfingers 7.12502
lthumb 59.6149 45.5601
rfemur -25.0599 -0.636521 2.61308
rtibia 54.275
rfoot 19.0099 -10.9917
rtoes -18.3061
lfemur -20.4202 25.2709 -15.7307
ltibia 38.487
lfoot -14.2083 3.25957
ltoes 19.5023
649
root -8.64972 17.0294 30.3139 -356.541 22.4181 0.642668
lowerback 0.610501 -5.99911 -1.11168
upperback -0.255494 -8.02711 -3.38715
thorax -0.937201 -4.01706 -2.72364
lowerneck -5.49592 -5.34695 -1.19127
upperneck 2.8527 -7.24859 4.40538
head 2.06587 -3.51879 1.34024
rclavicle -1.39646e-014 -1.59028e-014
rhumerus -56.9169 20.575 -62.33
rradius 123.879
rwrist -7.02182
rhand 1.29845 -6.85505
rfingers 7.12502
rthumb 26.8335 -34.9711
lclavicle -1.39646e-014 -1.59028e-014
lhumerus -47.8467 -32.7716 111.525
lradius 45.4762
lwrist 19.135
lhand 38.1137 31.4079
lfingers 7.12502
lthumb 60.8139 44.3044
rfemur -24.1209 -0.259659 2.35187
rtibia 53.1449
rfoot 17.0496 -9.524
rtoes -25.0595
lfemur -19.7897 23.8746 -14.519
ltibia 38.3583
lfoot -13.2031 0.356213
ltoes 17.7637
650
root -8.71059 17.0252 30.3319 -356.478 21.8979 0.878798
lowerback 0.413832 -5.92543 -0.984921
upperback -0.242536 -7.92362 -3.61312
thorax -0.859498 -3.96771 -3.04664
lowerneck -5.50419 -5.27129 -1.12741
upperneck 2.77566 -7.14895 4.40424
head 2.03616 -3.46945 1.33353
rclavicle -2.20651e-014 1.74931e-014
rhumerus -55.0342 22.2795 -59.0798
rradius 125.447
rwrist -9.42313
rhand 3.18316 -6.19921
rfingers 7.12502
rthumb 28.6356 -34.0251
lclavicle -2.20651e-014 1.74931e-014
lhumerus -48.0377 -33.0781 111.294
lradius 45.5403
lwrist 18.4242
lhand 39.4276 31.2142
lfingers 7.12502
lthumb 61.919 42.8085
rfemur -23.2377 0.0803173 2.07797
rtibia 51.9486
rfoot 15.1183 -8.39023
rtoes -29.9925
lfemur -18.9855 22.2212 -13.1844
ltibia 37.891
lfoot -12.1873 -2.97637
ltoes 14.9474
651
root -8.77091 17.0228 30.3512 -356.396 21.3189 1.11573
lowerback 0.16106 -5.84581 -0.85358
upperback -0.228233 -7.81052 -3.84006
thorax -0.748103 -3.91339 -3.38009
lowerneck -5.53995 -5.17545 -1.04074
upperneck 2.72102 -7.02285 4.36003
head 2.01506 -3.40707 1.30929
rclavicle 3.83157e-014 1.43125e-014
rhumerus -52.6949 23.7691 -55.3889
rradius 126.612
rwrist -12.43
rhand 5.0855 -6.02451
rfingers 7.12502
rthumb 30.4515 -33.5291
lclavicle 3.83157e-014 1.43125e-014
lhumerus -48.2264 -33.2814 111.036
lradius 45.5717
lwrist 17.8868
lhand 40.4982 30.9685
lfingers 7.12502
lthumb 62.8069 41.4202
rfemur -22.3904 0.416376 1.77197
rtibia 50.6508
rfoot 13.2265 -7.44603
rtoes -33.8746
lfemur -18.02 20.2828 -11.7749
ltibia 37.0378
lfoot -11.3694 -6.73989
ltoes 11.5719
652
root -8.83016 17.0199 30.3721 -356.279 20.6945 1.3586
lowerback -0.157235 -5.76543 -0.719404
upperback -0.226258 -7.69504 -4.06386
thorax -0.611232 -3.85763 -3.71871
lowerneck -5.60577 -5.05823 -0.935401
upperneck 2.72395 -6.86956 4.26434
head 2.01452 -3.331 1.26524
rclavicle -9.21864e-015 -3.18055e-014
rhumerus -49.8884 25.039 -51.2864
rradius 127.319
rwrist -15.8701
rhand 6.99259 -6.24096
rfingers 7.12502
rthumb 32.2686 -33.3927
lclavicle -9.21864e-015 -3.18055e-014
lhumerus -48.4091 -33.3439 110.745
lradius 45.5925
lwrist 17.6193
lhand 41.2195 30.8175
lfingers 7.12502
lthumb 63.398 40.4545
rfemur -21.568 0.759616 1.42091
rtibia 49.2673
rfoot 11.2644 -6.62714
rtoes -36.9597
lfemur -16.9196 18.0449 -10.3398
ltibia 35.7826
lfoot -10.9237 -10.8789
ltoes 7.7947
653
root -8.88798 17.0152 30.3941 -356.118 20.0421 1.59328
lowerback -0.538581 -5.68584 -0.560261
upperback -0.252146 -7.58027 -4.27901
thorax -0.468513 -3.80228 -4.06738
lowerneck -5.68242 -4.91892 -0.814758
upperneck 2.79201 -6.68844 4.12371
head 2.0343 -3.24098 1.20455
rclavicle 1.14848e-013 1.90833e-014
rhumerus -46.6724 26.0576 -46.8361
rradius 127.533
rwrist -19.5063
rhand 8.91847 -6.71094
rfingers 7.12502
rthumb 34.0998 -33.4725
lclavicle 1.14848e-013 1.90833e-014
lhumerus -48.5938 -33.2682 110.438
lradius 45.6267
lwrist 17.6717
lhand 41.5428 30.9235
lfingers 7.12502
lthumb 63.6611 40.183
rfemur -20.7613 1.10829 1.03905
rtibia 47.8333
rfoot 9.06791 -5.91701
rtoes -39.2156
lfemur -15.7381 15.4971 -8.90844
ltibia 34.1548
lfoot -10.9017 -15.2909
ltoes 4.35024
654
root -8.94421 17.0067 30.417 -355.915 19.3758 1.80052
lowerback -0.974194 -5.60651 -0.358871
upperback -0.312799 -7.4668 -4.47621
thorax -0.332887 -3.74784 -4.42454
lowerneck -5.77702 -4.76584 -0.694729
upperneck 2.93856 -6.49055 3.9538
head 2.08208 -3.14211 1.1343
rclavicle 1.12562e-014 -4.13472e-014
rhumerus -43.1223 26.8177 -42.1252
rradius 127.236
rwrist -23.1078
rhand 10.8815 -7.31076
rfingers 7.12502
rthumb 35.9619 -33.6366
lclavicle 1.12562e-014 -4.13472e-014
lhumerus -48.7742 -33.0755 110.137
lradius 45.6831
lwrist 18.01
lhand 41.5119 31.3915
lfingers 7.12502
lthumb 63.636 40.6873
rfemur -19.9729 1.45618 0.647744
rtibia 46.38
rfoot 6.58623 -5.2735
rtoes -40.6454
lfemur -14.5298 12.666 -7.49812
ltibia 32.215
lfoot -11.2018 -19.8156
ltoes 1.75453
655
root -8.99867 16.9941 30.4404 -355.674 18.7119 1.9734
lowerback -1.44831 -5.52771 -0.113823
upperback -0.408936 -7.35636 -4.64915
thorax -0.213306 -3.69535 -4.78272
lowerneck -5.87062 -4.60051 -0.575981
upperneck 3.14179 -6.27747 3.77016
head 2.14833 -3.03542 1.0602
rclavicle 1.62258e-014 4.13472e-014
rhumerus -39.3395 27.3146 -37.2538
rradius 126.42
rwrist -26.4581
rhand 12.9147 -7.92893
rfingers 7.12502
rthumb 37.8853 -33.7593
lclavicle 1.62258e-014 4.13472e-014
lhumerus -48.9469 -32.8187 109.874
lradius 45.7495
lwrist 18.5694
lhand 41.1978 32.2295
lfingers 7.12502
lthumb 63.3804 41.8914
rfemur -19.2114 1.78618 0.257229
rtibia 44.9261
rfoot 3.91858 -4.60765
rtoes -41.4782
lfemur -13.3397 9.59722 -6.12524
ltibia 30.0458
lfoot -11.5673 -24.2738
ltoes 0.437236
656
root -9.05147 16.9769 30.4635 -355.408 18.0578 2.0977
lowerback -1.93636 -5.44525 0.178396
upperback -0.53583 -7.24481 -4.78915
thorax -0.117582 -3.6429 -5.1326
lowerneck -5.98954 -4.4382 -0.448454
upperneck 3.41054 -6.06992 3.56066
head 2.24063 -2.93109 0.975238
rclavicle -7.03946e-014 -6.04305e-014
rhumerus -35.4479 27.5649 -32.3349
rradius 125.104
rwrist -29.3373
rhand 14.9625 -8.51491
rfingers 7.12502
rthumb 39.8163 -33.7961
lclavicle -7.03946e-014 -6.04305e-014
lhumerus -49.1094 -32.5469 109.679
lradius 45.8117
lwrist 19.2207
lhand 40.7077 33.3324
lfingers 7.12502
lthumb 62.9792 43.5512
rfemur -18.4929 2.08375 -0.112624
rtibia 43.4808
rfoot 1.23993 -3.84046
rtoes -41.8468
lfemur -12.2093 6.37792 -4.79442
ltibia 27.7435
lfoot -11.7307 -28.4405
ltoes 0.331924
